<svg xmlns="http://www.w3.org/2000/svg" viewBox="0 0 64 64" role="img" aria-label="Demo avatar">
  <defs>
    <linearGradient id="bg" x1="0" y1="0" x2="1" y2="1">
      <stop offset="0" stop-color="#06b6d4"/>
      <stop offset="1" stop-color="#6366f1"/>
    </linearGradient>
  </defs>
  <!-- Background -->
  <circle cx="32" cy="32" r="30" fill="url(#bg)"/>
  <!-- Hair -->
  <path d="M14 28c0-12 8-18 18-18s18 6 18 18c0 2-1 5-2 7-3-9-10-10-16-10s-13 1-16 10c-1-2-2-5-2-7z"
        fill="#1f2937" opacity="0.95"/>
  <!-- Face -->
  <circle cx="32" cy="32" r="12" fill="#f2c9a0"/>
  <!-- Eyes -->
  <circle cx="27" cy="31" r="1.4" fill="#111827"/>
  <circle cx="37" cy="31" r="1.4" fill="#111827"/>
  <!-- Smile -->
  <path d="M28 36c2.5 2 5.5 2 8 0" fill="none" stroke="#111827" stroke-width="1.6" stroke-linecap="round"/>
  <!-- Shirt -->
  <path d="M18 56c2-10 10-16 14-16h0c4 0 12 6 14 16" fill="#0f172a" opacity="0.85"/>
</svg>


